<?xml version="1.0" encoding="UTF-8" standalone="no"?>
<svg
   xmlns:dc="http://purl.org/dc/elements/1.1/"
   xmlns:cc="http://creativecommons.org/ns#"
   xmlns:rdf="http://www.w3.org/1999/02/22-rdf-syntax-ns#"
   xmlns:svg="http://www.w3.org/2000/svg"
   xmlns="http://www.w3.org/2000/svg"
   xmlns:sodipodi="http://sodipodi.sourceforge.net/DTD/sodipodi-0.dtd"
   xmlns:inkscape="http://www.inkscape.org/namespaces/inkscape"
   height="54"
   width="74"
   id="svg3809"
   version="1.1"
   class="style-scope ytd-topbar-logo-renderer"
   style="display:block"
   focusable="false"
   preserveAspectRatio="xMidYMid meet"
   viewBox="0 0 74 54"
   sodipodi:docname="offload.svg"
   inkscape:export-filename="/home/alex/Development/edl/offload.svg.png"
   inkscape:export-xdpi="96"
   inkscape:export-ydpi="96"
   inkscape:version="0.92.2 2405546, 2018-03-11">
  <sodipodi:namedview
     pagecolor="#ffffff"
     bordercolor="#666666"
     borderopacity="1"
     objecttolerance="10"
     gridtolerance="10"
     guidetolerance="10"
     inkscape:pageopacity="0"
     inkscape:pageshadow="2"
     inkscape:window-width="933"
     inkscape:window-height="1002"
     id="namedview18"
     showgrid="false"
     inkscape:zoom="4.5658895"
     inkscape:cx="37.9969"
     inkscape:cy="19.795672"
     inkscape:window-x="1940"
     inkscape:window-y="38"
     inkscape:window-maximized="0"
     inkscape:current-layer="svg3809" />
  <metadata
     id="metadata3815">
    <rdf:RDF>
      <cc:Work
         rdf:about="">
        <dc:format>image/svg+xml</dc:format>
        <dc:type
           rdf:resource="http://purl.org/dc/dcmitype/StillImage" />
        <dc:title></dc:title>
      </cc:Work>
    </rdf:RDF>
  </metadata>
  <defs
     id="defs3813" />
  <g
     class="style-scope ytd-topbar-logo-renderer"
     id="g3788"
     transform="translate(5.5752214,-2.2831858)">
    <path
       d="M 63,14.87 C 62.28,12.17 60.15,10.04 57.44,9.31 52.54,8 32.88,8 32.88,8 32.88,8 13.23,8 8.32,9.31 5.62,10.03 3.49,12.16 2.76,14.87 1.45,19.77 1.45,30 1.45,30 c 0,0 0,10.23 1.31,15.13 0.72,2.7 2.85,4.83 5.56,5.56 C 13.23,52 32.88,52 32.88,52 c 0,0 19.66,0 24.56,-1.31 2.7,-0.72 4.83,-2.85 5.56,-5.56 1.31,-4.9 1.31,-15.13 1.31,-15.13 0,0 0,-10.23 -1.31,-15.13 z"
       class="style-scope ytd-topbar-logo-renderer"
       id="path3784"
       style="fill:#ff0000"
       inkscape:connector-curvature="0" />
    <polygon
       points="26.6,39.43 42.93,30 26.6,20.57 "
       class="style-scope ytd-topbar-logo-renderer"
       id="polygon3786"
       style="fill:#ffffff" />
  </g>
  <rect
     y="17.428171"
     x="25.801762"
     height="23.186525"
     width="23.186525"
     id="rect3881"
     style="fill:#ff0000;fill-opacity:1" />
  <rect
     transform="scale(1,-1)"
     y="-38.367062"
     x="29.145205"
     height="21.048759"
     width="5.9199638"
     id="rect3853"
     style="fill:#ffffff;fill-opacity:1" />
  <rect
     transform="scale(1,-1)"
     y="-38.476204"
     x="40.82069"
     height="21.048759"
     width="5.9199638"
     id="rect3853-3"
     style="display:block;fill:#ffffff;fill-opacity:1" />
</svg>
