<?xml version="1.0" encoding="UTF-8" standalone="no"?>
<svg
   xmlns:dc="http://purl.org/dc/elements/1.1/"
   xmlns:cc="http://creativecommons.org/ns#"
   xmlns:rdf="http://www.w3.org/1999/02/22-rdf-syntax-ns#"
   xmlns:svg="http://www.w3.org/2000/svg"
   xmlns="http://www.w3.org/2000/svg"
   height="60"
   width="210"
   id="svg3809"
   version="1.1"
   class="style-scope ytd-topbar-logo-renderer"
   style="display:block"
   focusable="false"
   preserveAspectRatio="xMidYMid meet"
   viewBox="0 0 210 60">
  <metadata
     id="metadata3815">
    <rdf:RDF>
      <cc:Work
         rdf:about="">
        <dc:format>image/svg+xml</dc:format>
        <dc:type
           rdf:resource="http://purl.org/dc/dcmitype/StillImage" />
        <dc:title></dc:title>
      </cc:Work>
    </rdf:RDF>
  </metadata>
  <defs
     id="defs3813" />
  <g
     class="style-scope ytd-topbar-logo-renderer"
     id="g3788">
    <path
       d="M 63,14.87 C 62.28,12.17 60.15,10.04 57.44,9.31 52.54,8 32.88,8 32.88,8 32.88,8 13.23,8 8.32,9.31 5.62,10.03 3.49,12.16 2.76,14.87 1.45,19.77 1.45,30 1.45,30 c 0,0 0,10.23 1.31,15.13 0.72,2.7 2.85,4.83 5.56,5.56 C 13.23,52 32.88,52 32.88,52 c 0,0 19.66,0 24.56,-1.31 2.7,-0.72 4.83,-2.85 5.56,-5.56 1.31,-4.9 1.31,-15.13 1.31,-15.13 0,0 0,-10.23 -1.31,-15.13 z"
       class="style-scope ytd-topbar-logo-renderer"
       id="path3784"
       style="fill:#ff0000" />
    <polygon
       points="42.93,30 26.6,20.57 26.6,39.43 "
       class="style-scope ytd-topbar-logo-renderer"
       id="polygon3786"
       style="fill:#ffffff" />
  </g>
  <text
     id="text3819"
     y="48.582661"
     x="64.779427"
     style="font-style:normal;font-weight:normal;font-size:54.81463242px;line-height:1.25;font-family:sans-serif;letter-spacing:-4.11109734px;word-spacing:0px;fill:#282828;fill-opacity:1;stroke:none;stroke-width:1.37036586"
     xml:space="preserve"><tspan
       style="font-style:normal;font-variant:normal;font-weight:bold;font-stretch:normal;font-size:51.1603241px;font-family:'Noto Sans';-inkscape-font-specification:'Noto Sans Bold';letter-spacing:-4.11109734px;fill:#282828;fill-opacity:1;stroke-width:1.37036586"
       y="48.582661"
       x="64.779427"
       id="tspan3817">O<tspan
   id="tspan3821"
   style="font-size:40.19739914px;fill:#282828;fill-opacity:1;stroke-width:1.37036586">ff</tspan><tspan
   id="tspan3837"
   style="letter-spacing:-8.10999966px">L</tspan><tspan
   id="tspan3823"
   style="font-size:40.19739914px;fill:#282828;fill-opacity:1;stroke-width:1.37036586"><tspan
     id="tspan3839"
     style="letter-spacing:-3.1099999px">o</tspan><tspan
     style="letter-spacing:-4.61000013px"
     id="tspan3849">ad</tspan></tspan></tspan></text>
  <rect
     y="19.711357"
     x="20.226543"
     height="23.186525"
     width="23.186525"
     id="rect3881"
     style="fill:#ff0000;fill-opacity:1" />
  <rect
     transform="scale(1,-1)"
     y="-40.431229"
     x="23.350969"
     height="21.048759"
     width="5.9199638"
     id="rect3853"
     style="fill:#ffffff;fill-opacity:1" />
  <rect
     transform="scale(1,-1)"
     y="-40.102341"
     x="35.026455"
     height="21.048759"
     width="5.9199638"
     id="rect3853-3"
     style="display:block;fill:#ffffff;fill-opacity:1" />
</svg>
